<mxfile host="65bd71144e">
    <diagram id="8ZDKUlsk_YLwseFVu2Fd" name="Page-1">
        <mxGraphModel dx="1706" dy="2224" grid="1" gridSize="10" guides="1" tooltips="1" connect="1" arrows="1" fold="1" page="1" pageScale="1" pageWidth="850" pageHeight="1100" math="0" shadow="0">
            <root>
                <mxCell id="0"/>
                <mxCell id="1" parent="0"/>
                <mxCell id="4" value="USER&lt;hr&gt;id: int&lt;br&gt;email: string&lt;br&gt;password: string&lt;br&gt;rank: array&lt;br&gt;name: string&lt;br&gt;prenom: string&lt;br&gt;active: int&lt;br&gt;contract: string&lt;br&gt;date: date" style="rounded=0;whiteSpace=wrap;html=1;verticalAlign=top;" parent="1" vertex="1">
                    <mxGeometry x="480" y="-480" width="120" height="170" as="geometry"/>
                </mxCell>
                <mxCell id="5" value="PROJECT&lt;hr&gt;id: int&lt;br&gt;name: string&lt;br&gt;description : string&lt;br&gt;date_start: date&lt;br&gt;date_end: date&lt;br&gt;user_list: array&lt;br&gt;" style="rounded=0;whiteSpace=wrap;html=1;verticalAlign=top;" parent="1" vertex="1">
                    <mxGeometry x="120" width="140" height="150" as="geometry"/>
                </mxCell>
                <mxCell id="80" style="edgeStyle=none;html=1;exitX=0;exitY=0.6;exitDx=0;exitDy=0;exitPerimeter=0;entryX=1.007;entryY=0.807;entryDx=0;entryDy=0;entryPerimeter=0;" edge="1" parent="1" source="6" target="5">
                    <mxGeometry relative="1" as="geometry">
                        <mxPoint x="480" y="120" as="sourcePoint"/>
                        <mxPoint x="270" y="120" as="targetPoint"/>
                    </mxGeometry>
                </mxCell>
                <mxCell id="6" value="TASK&lt;br&gt;&lt;hr&gt;id: int&lt;br&gt;project_id: int&lt;br&gt;title: string&lt;span style=&quot;white-space: pre;&quot;&gt;&#9;&lt;/span&gt;&lt;br&gt;description: varchar&lt;br&gt;date_start: date&lt;br&gt;date_end: date&lt;br&gt;assigned_user: int&lt;br&gt;&lt;font style=&quot;&quot;&gt;&lt;br&gt;&lt;br&gt;&lt;br&gt;&lt;/font&gt;" style="rounded=0;whiteSpace=wrap;html=1;verticalAlign=top;" parent="1" vertex="1">
                    <mxGeometry x="490" width="140" height="200" as="geometry"/>
                </mxCell>
                <mxCell id="79" style="edgeStyle=none;html=1;exitX=0;exitY=0.75;exitDx=0;exitDy=0;entryX=1;entryY=0.75;entryDx=0;entryDy=0;" edge="1" parent="1" source="7" target="6">
                    <mxGeometry relative="1" as="geometry"/>
                </mxCell>
                <mxCell id="7" value="CRENEAU&lt;hr&gt;ID : int&lt;br&gt;task_id: int&lt;br&gt;users_id: int&lt;br&gt;&lt;font style=&quot;&quot;&gt;date_end:date&amp;nbsp;&lt;br&gt;date_start: date&lt;br&gt;&lt;/font&gt;" style="rounded=0;whiteSpace=wrap;html=1;verticalAlign=top;" parent="1" vertex="1">
                    <mxGeometry x="830" width="120" height="150" as="geometry"/>
                </mxCell>
                <mxCell id="9" value="STATUT&lt;hr&gt;id: int&lt;br&gt;title: string" style="rounded=0;whiteSpace=wrap;html=1;verticalAlign=top;" parent="1" vertex="1">
                    <mxGeometry x="460" y="950" width="120" height="80" as="geometry"/>
                </mxCell>
                <mxCell id="11" value="TAG&lt;hr&gt;id: int&lt;br&gt;title: string" style="rounded=0;whiteSpace=wrap;html=1;verticalAlign=top;" parent="1" vertex="1">
                    <mxGeometry x="240" y="950" width="120" height="80" as="geometry"/>
                </mxCell>
                <mxCell id="13" value="+ addProject()&lt;br&gt;+editProject()&lt;br&gt;+RemoveProject()&lt;br&gt;+archiver()" style="rounded=0;whiteSpace=wrap;html=1;" parent="1" vertex="1">
                    <mxGeometry x="120" y="150" width="140" height="80" as="geometry"/>
                </mxCell>
                <mxCell id="17" value="+auth()&lt;br&gt;+addUser()&lt;br&gt;-removeUser()&lt;br&gt;+setContract()&lt;br&gt;&lt;div style=&quot;text-align: left;&quot;&gt;&lt;br&gt;&lt;/div&gt;" style="rounded=0;whiteSpace=wrap;html=1;" parent="1" vertex="1">
                    <mxGeometry x="480" y="-310" width="120" height="80" as="geometry"/>
                </mxCell>
                <mxCell id="18" value="&amp;nbsp;+assignerEmployÃ©()&lt;br&gt;&amp;nbsp;+changerStatut()&lt;br&gt;+ ajouterTag()&lt;br&gt;+ ajouterTemps()" style="rounded=0;whiteSpace=wrap;html=1;" parent="1" vertex="1">
                    <mxGeometry x="490" y="200" width="140" height="80" as="geometry"/>
                </mxCell>
                <mxCell id="19" value="+addCreneau()&lt;br&gt;+editCreneau()&lt;br&gt;+deletteCreneau&lt;span style=&quot;color: rgba(0, 0, 0, 0); font-family: monospace; font-size: 0px; text-align: start;&quot;&gt;%3CmxGraphModel%3E%3Croot%3E%3CmxCell%20id%3D%220%22%2F%3E%3CmxCell%20id%3D%221%22%20parent%3D%220%22%2F%3E%3CmxCell%20id%3D%222%22%20value%3D%22%26amp%3Bnbsp%3B%2BassignerEmploy%C3%A9()%26lt%3Bbr%26gt%3B%26amp%3Bnbsp%3B%2BchangerStatut()%26lt%3Bbr%26gt%3B%2B%20ajouterTag()%26lt%3Bbr%26gt%3B%2B%20ajouterTemps()%22%20style%3D%22rounded%3D0%3BwhiteSpace%3Dwrap%3Bhtml%3D1%3B%22%20vertex%3D%221%22%20parent%3D%221%22%3E%3CmxGeometry%20x%3D%22520%22%20y%3D%22230%22%20width%3D%22140%22%20height%3D%2280%22%20as%3D%22geometry%22%2F%3E%3C%2FmxCell%3E%3C%2Froot%3E%3C%2FmxGraphModel%3E&lt;/span&gt;" style="rounded=0;whiteSpace=wrap;html=1;" parent="1" vertex="1">
                    <mxGeometry x="830" y="150" width="120" height="70" as="geometry"/>
                </mxCell>
                <mxCell id="20" value="+setStatut()" style="rounded=0;whiteSpace=wrap;html=1;" parent="1" vertex="1">
                    <mxGeometry x="460" y="1030" width="120" height="50" as="geometry"/>
                </mxCell>
                <mxCell id="21" value="+setTag()" style="rounded=0;whiteSpace=wrap;html=1;" parent="1" vertex="1">
                    <mxGeometry x="240" y="1030" width="120" height="50" as="geometry"/>
                </mxCell>
                <mxCell id="82" style="edgeStyle=none;html=1;exitX=0.75;exitY=0;exitDx=0;exitDy=0;entryX=0.25;entryY=1;entryDx=0;entryDy=0;" edge="1" parent="1" source="40" target="46">
                    <mxGeometry relative="1" as="geometry"/>
                </mxCell>
                <mxCell id="40" value="&lt;span style=&quot;color: rgb(255, 255, 255); font-family: ui-monospace, SFMono-Regular, &amp;quot;SF Mono&amp;quot;, Menlo, Consolas, &amp;quot;Liberation Mono&amp;quot;, monospace; font-size: 14px; text-align: left; background-color: rgb(13, 13, 13);&quot;&gt;ProjectTags&lt;/span&gt;&lt;hr&gt;ID : int&lt;br&gt;project_id: int&lt;br&gt;tag_id: int" style="rounded=0;whiteSpace=wrap;html=1;verticalAlign=top;" parent="1" vertex="1">
                    <mxGeometry x="50" y="680" width="140" height="100" as="geometry"/>
                </mxCell>
                <mxCell id="59" style="edgeStyle=none;html=1;exitX=0.25;exitY=1;exitDx=0;exitDy=0;entryX=0.75;entryY=0;entryDx=0;entryDy=0;" edge="1" parent="1" source="44" target="5">
                    <mxGeometry relative="1" as="geometry"/>
                </mxCell>
                <mxCell id="60" style="edgeStyle=none;html=1;exitX=0.5;exitY=1;exitDx=0;exitDy=0;entryX=0.35;entryY=0.005;entryDx=0;entryDy=0;entryPerimeter=0;" edge="1" parent="1" source="44" target="6">
                    <mxGeometry relative="1" as="geometry"/>
                </mxCell>
                <mxCell id="61" style="edgeStyle=none;html=1;exitX=0.75;exitY=1;exitDx=0;exitDy=0;entryX=0;entryY=0;entryDx=0;entryDy=0;" edge="1" parent="1" source="44" target="7">
                    <mxGeometry relative="1" as="geometry"/>
                </mxCell>
                <mxCell id="44" value="&lt;div&gt;+getUser()&lt;/div&gt;&lt;div&gt;+getUserID()&lt;/div&gt;&lt;div&gt;+getName()&lt;/div&gt;&lt;div&gt;+getEmail()&lt;br&gt;+getRank()&lt;/div&gt;&lt;div&gt;+getActive()&lt;br&gt;+getContract()&lt;br&gt;+getDate()&lt;/div&gt;&lt;div&gt;+setName()&amp;nbsp;&lt;/div&gt;&lt;div&gt;+setEmail()&lt;br&gt;&lt;br&gt;&lt;/div&gt;" style="whiteSpace=wrap;html=1;rounded=0;" vertex="1" parent="1">
                    <mxGeometry x="480" y="-230" width="120" height="160" as="geometry"/>
                </mxCell>
                <mxCell id="46" value="+getProject()&lt;br&gt;+getProjectId()&lt;br&gt;+getProjectName()&lt;br&gt;+getProjectDescription()&lt;br&gt;+getProjectDateStart()&lt;br&gt;+getProjectDateEnd()&lt;br&gt;+getProjectUsers()&lt;br&gt;+getProjectStatut()&lt;br&gt;+getProjectTags()&lt;br&gt;+setProjectName()&lt;br&gt;+setProjectDescription()&lt;br&gt;+setProjectEnd()&lt;br&gt;+setProjectUser()" style="rounded=0;whiteSpace=wrap;html=1;" vertex="1" parent="1">
                    <mxGeometry x="120" y="230" width="140" height="220" as="geometry"/>
                </mxCell>
                <mxCell id="76" style="edgeStyle=none;html=1;exitX=0.5;exitY=0;exitDx=0;exitDy=0;" edge="1" parent="1" source="47" target="75">
                    <mxGeometry relative="1" as="geometry"/>
                </mxCell>
                <mxCell id="47" value="TYPE&lt;hr&gt;id: int&lt;br&gt;title: int&lt;br&gt;" style="rounded=0;whiteSpace=wrap;html=1;verticalAlign=top;" vertex="1" parent="1">
                    <mxGeometry x="920" y="910" width="120" height="100" as="geometry"/>
                </mxCell>
                <mxCell id="77" style="edgeStyle=none;html=1;exitX=0.5;exitY=0;exitDx=0;exitDy=0;" edge="1" parent="1" source="48" target="47">
                    <mxGeometry relative="1" as="geometry"/>
                </mxCell>
                <mxCell id="48" value="+setType()" style="rounded=0;whiteSpace=wrap;html=1;" vertex="1" parent="1">
                    <mxGeometry x="920" y="1010" width="120" height="50" as="geometry"/>
                </mxCell>
                <mxCell id="49" value="+getTask()&lt;br&gt;+getTaskId()&lt;br&gt;+getTaskProject()&lt;br&gt;+getTaskTitle()&lt;br&gt;+getTaskDescription()&lt;br&gt;+getTaskStart()&lt;br&gt;+getTaskEnd()&lt;br&gt;+getTaskUsers()&lt;br&gt;+getTaskTags()&lt;br&gt;+getTaskStatut()&lt;br&gt;+setTaskProject()&lt;br&gt;+setTaskTitle()&lt;br&gt;+setTaskDescription()&lt;br&gt;+setTaskEnd()&lt;br&gt;+setTaskStart()&lt;br&gt;+setTaskUser()&lt;br&gt;" style="rounded=0;whiteSpace=wrap;html=1;" vertex="1" parent="1">
                    <mxGeometry x="490" y="280" width="140" height="250" as="geometry"/>
                </mxCell>
                <mxCell id="50" value="+getCreneau()&lt;br&gt;+getCreneauId()&lt;br&gt;+getTaskId()&lt;br&gt;+getTaskUser()&lt;br&gt;+getTaskStart()&lt;br&gt;+getTaskEnd()&lt;br&gt;+setTaskId()&lt;br&gt;+setTaskUser()&lt;br&gt;+setTaskEnd()&lt;br&gt;&lt;span style=&quot;color: rgba(0, 0, 0, 0); font-family: monospace; font-size: 0px; text-align: start;&quot;&gt;%3CmxGraphModel%3E%3Croot%3E%3CmxCell%20id%3D%220%22%2F%3E%3CmxCell%20id%3D%221%22%20parent%3D%220%22%2F%3E%3CmxCell%20id%3D%222%22%20value%3D%22%26amp%3Bnbsp%3B%2BassignerEmploy%C3%A9()%26lt%3Bbr%26gt%3B%26amp%3Bnbsp%3B%2BchangerStatut()%26lt%3Bbr%26gt%3B%2B%20ajouterTag()%26lt%3Bbr%26gt%3B%2B%20ajouterTemps()%22%20style%3D%22rounded%3D0%3BwhiteSpace%3Dwrap%3Bhtml%3D1%3B%22%20vertex%3D%221%22%20parent%3D%221%22%3E%3CmxGeometry%20x%3D%22520%22%20y%3D%22230%22%20width%3D%22140%22%20height%3D%2280%22%20as%3D%22geometry%22%2F%3E%3C%2FmxCell%3E%3C%2Froot%3E%3C%2FmxGraphModel%3E&lt;/span&gt;" style="rounded=0;whiteSpace=wrap;html=1;" vertex="1" parent="1">
                    <mxGeometry x="830" y="220" width="120" height="150" as="geometry"/>
                </mxCell>
                <mxCell id="85" style="edgeStyle=none;html=1;exitX=0.75;exitY=1;exitDx=0;exitDy=0;entryX=0.5;entryY=0;entryDx=0;entryDy=0;" edge="1" parent="1" source="51" target="11">
                    <mxGeometry relative="1" as="geometry"/>
                </mxCell>
                <mxCell id="51" value="+getTag()&lt;br&gt;+geTagId()&lt;br&gt;+getTagTitle()" style="rounded=0;whiteSpace=wrap;html=1;" vertex="1" parent="1">
                    <mxGeometry x="50" y="780" width="140" height="50" as="geometry"/>
                </mxCell>
                <mxCell id="83" style="edgeStyle=none;html=1;exitX=0.25;exitY=0;exitDx=0;exitDy=0;entryX=0.893;entryY=1;entryDx=0;entryDy=0;entryPerimeter=0;" edge="1" parent="1" source="52" target="46">
                    <mxGeometry relative="1" as="geometry"/>
                </mxCell>
                <mxCell id="52" value="&lt;span style=&quot;color: rgb(255, 255, 255); font-family: ui-monospace, SFMono-Regular, &amp;quot;SF Mono&amp;quot;, Menlo, Consolas, &amp;quot;Liberation Mono&amp;quot;, monospace; font-size: 14px; text-align: left; background-color: rgb(13, 13, 13);&quot;&gt;ProjectStatut&lt;/span&gt;&lt;hr&gt;ID : int&lt;br&gt;project_id: int&lt;br&gt;tag_id: int" style="rounded=0;whiteSpace=wrap;html=1;verticalAlign=top;" vertex="1" parent="1">
                    <mxGeometry x="210" y="680" width="140" height="100" as="geometry"/>
                </mxCell>
                <mxCell id="84" style="edgeStyle=none;html=1;exitX=0.75;exitY=1;exitDx=0;exitDy=0;entryX=0;entryY=0;entryDx=0;entryDy=0;" edge="1" parent="1" source="53" target="9">
                    <mxGeometry relative="1" as="geometry"/>
                </mxCell>
                <mxCell id="53" value="+getStatut()&lt;br&gt;+getStatutId()&lt;br&gt;+getStatutTitle()" style="rounded=0;whiteSpace=wrap;html=1;" vertex="1" parent="1">
                    <mxGeometry x="210" y="780" width="140" height="50" as="geometry"/>
                </mxCell>
                <mxCell id="88" style="edgeStyle=none;html=1;exitX=1;exitY=0;exitDx=0;exitDy=0;entryX=0.143;entryY=1;entryDx=0;entryDy=0;entryPerimeter=0;" edge="1" parent="1" source="54" target="49">
                    <mxGeometry relative="1" as="geometry">
                        <mxPoint x="500" y="610" as="targetPoint"/>
                    </mxGeometry>
                </mxCell>
                <mxCell id="54" value="&lt;span style=&quot;color: rgb(255, 255, 255); font-family: ui-monospace, SFMono-Regular, &amp;quot;SF Mono&amp;quot;, Menlo, Consolas, &amp;quot;Liberation Mono&amp;quot;, monospace; font-size: 14px; text-align: left; background-color: rgb(13, 13, 13);&quot;&gt;TaskTags&lt;/span&gt;&lt;hr&gt;ID : int&lt;br&gt;task_id: int&lt;br&gt;tag_id: int" style="rounded=0;whiteSpace=wrap;html=1;verticalAlign=top;" vertex="1" parent="1">
                    <mxGeometry x="370" y="680" width="140" height="100" as="geometry"/>
                </mxCell>
                <mxCell id="86" style="edgeStyle=none;html=1;exitX=0.25;exitY=1;exitDx=0;exitDy=0;entryX=1;entryY=0;entryDx=0;entryDy=0;" edge="1" parent="1" source="55" target="11">
                    <mxGeometry relative="1" as="geometry"/>
                </mxCell>
                <mxCell id="55" value="+getTag()&lt;br&gt;+geTagId()&lt;br&gt;+getTagTitle()" style="rounded=0;whiteSpace=wrap;html=1;" vertex="1" parent="1">
                    <mxGeometry x="370" y="780" width="140" height="50" as="geometry"/>
                </mxCell>
                <mxCell id="90" style="edgeStyle=none;html=1;exitX=0;exitY=0;exitDx=0;exitDy=0;entryX=0.364;entryY=1.012;entryDx=0;entryDy=0;entryPerimeter=0;" edge="1" parent="1" source="56" target="49">
                    <mxGeometry relative="1" as="geometry"/>
                </mxCell>
                <mxCell id="56" value="&lt;div style=&quot;&quot;&gt;&lt;font face=&quot;ui-monospace, SFMono-Regular, SF Mono, Menlo, Consolas, Liberation Mono, monospace&quot; color=&quot;#ffffff&quot;&gt;&lt;span style=&quot;font-size: 14px; background-color: rgb(13, 13, 13);&quot;&gt;TaskStatut&lt;/span&gt;&lt;/font&gt;&lt;/div&gt;&lt;hr&gt;&lt;div style=&quot;&quot;&gt;&lt;span style=&quot;background-color: initial;&quot;&gt;ID : int&lt;/span&gt;&lt;/div&gt;task_id: int&lt;br&gt;tag_id: int" style="rounded=0;whiteSpace=wrap;html=1;verticalAlign=top;align=center;" vertex="1" parent="1">
                    <mxGeometry x="540" y="680" width="140" height="100" as="geometry"/>
                </mxCell>
                <mxCell id="87" style="edgeStyle=none;html=1;exitX=0.25;exitY=1;exitDx=0;exitDy=0;entryX=0.75;entryY=0;entryDx=0;entryDy=0;" edge="1" parent="1" source="58" target="9">
                    <mxGeometry relative="1" as="geometry"/>
                </mxCell>
                <mxCell id="58" value="+getStatut()&lt;br&gt;+getStatutId()&lt;br&gt;+getStatutTitle()" style="rounded=0;whiteSpace=wrap;html=1;" vertex="1" parent="1">
                    <mxGeometry x="540" y="780" width="140" height="50" as="geometry"/>
                </mxCell>
                <mxCell id="78" style="edgeStyle=none;html=1;exitX=0.5;exitY=0;exitDx=0;exitDy=0;entryX=1;entryY=0.75;entryDx=0;entryDy=0;" edge="1" parent="1" source="74" target="49">
                    <mxGeometry relative="1" as="geometry">
                        <Array as="points">
                            <mxPoint x="980" y="468"/>
                        </Array>
                    </mxGeometry>
                </mxCell>
                <mxCell id="74" value="&lt;div style=&quot;&quot;&gt;&lt;font face=&quot;ui-monospace, SFMono-Regular, SF Mono, Menlo, Consolas, Liberation Mono, monospace&quot; color=&quot;#ffffff&quot;&gt;&lt;span style=&quot;font-size: 14px; background-color: rgb(13, 13, 13);&quot;&gt;TaskType&lt;/span&gt;&lt;/font&gt;&lt;/div&gt;&lt;hr&gt;&lt;div style=&quot;&quot;&gt;&lt;span style=&quot;background-color: initial;&quot;&gt;ID : int&lt;/span&gt;&lt;/div&gt;task_id: int&lt;br&gt;type_id: int" style="rounded=0;whiteSpace=wrap;html=1;verticalAlign=top;align=center;" vertex="1" parent="1">
                    <mxGeometry x="910" y="670" width="140" height="100" as="geometry"/>
                </mxCell>
                <mxCell id="75" value="+getTaskType()&lt;br&gt;+getTaskTypeId()&lt;br&gt;+getTaskTypeTitle()" style="rounded=0;whiteSpace=wrap;html=1;" vertex="1" parent="1">
                    <mxGeometry x="910" y="770" width="140" height="50" as="geometry"/>
                </mxCell>
            </root>
        </mxGraphModel>
    </diagram>
</mxfile>